<svg width="1742" height="835" viewBox="0 0 1742 835" fill="none" xmlns="http://www.w3.org/2000/svg">
<path d="M499.437 1.29869C490.855 25.1474 446.525 154.899 445.552 159.09C443.429 168.358 442.986 174.497 444.136 182.112C445.818 194.154 449.357 202.655 457.232 213.694C468.115 229.101 470.238 234.355 470.15 245.866C470.061 253.068 469.796 254.78 467.761 259.325C464.576 266.173 459.267 273.139 447.233 286.007C427.237 307.436 420.247 317.117 414.849 330.871C413.08 335.358 412.814 337.601 412.814 345.629C412.814 354.248 413.08 355.546 415.203 360.328C418.477 367.412 423.52 374.2 430.776 381.461C439.27 389.903 445.906 395.098 466.522 409.383C476.344 416.172 487.669 424.141 491.651 427.093C507.489 438.781 522.796 452.535 529.786 461.449C536.245 469.654 539.165 483.704 536.511 493.68C533.148 506.372 521.115 519.064 497.756 534.53C474.751 549.878 460.594 557.08 386.27 591.613C356.717 605.309 334.862 617.115 317.166 628.98C294.515 644.092 281.773 656.076 266.378 676.56C253.725 693.443 246.027 706.429 236.648 726.972C232.224 736.654 224.526 757.433 225.057 758.377C225.499 759.026 234.171 759.145 275.757 759.026L326.014 758.849L328.049 753.537C340.083 722.073 349.55 704.068 365.477 682.699C390.34 649.228 414.849 628.862 459.798 604.659C472.362 597.871 486.607 590.728 512.709 578.213C539.873 565.167 550.402 559.913 566.24 551.413C623.045 521.012 641.273 501.177 634.725 476.738C633.309 471.543 632.336 469.595 628.354 463.987C618.091 449.584 599.686 435.593 560.489 412.335C522.442 389.844 510.143 379.926 502.976 366.231C499.968 360.623 498.995 351.119 500.764 345.157C503.065 337.07 509.347 326.621 517.045 318.002C519.257 315.464 521.115 313.221 521.115 313.103C521.115 312.926 521.911 312.099 522.796 311.214C526.424 307.79 550.137 283.469 552.614 280.695C561.463 270.836 565.444 262.277 565.621 252.655C565.71 248.936 565.444 244.331 565.09 242.442C564.117 237.602 558.897 227.212 553.234 218.534C547.748 210.093 544.12 203.127 541.82 196.28C540.492 192.502 540.139 189.196 540.139 180.046C540.227 167.295 540.935 163.635 546.863 146.988C548.721 141.616 550.314 137.071 550.314 136.835C550.314 136.186 564.294 131.64 574.204 128.984C588.626 125.147 596.501 123.907 608.711 123.553C633.044 122.844 646.139 126.918 650.475 136.54C652.333 140.554 651.89 153.895 649.678 161.156C648.616 164.58 647.378 169.066 646.847 171.191C642.511 189.845 647.112 206.551 661.889 225.205C681.089 249.644 686.486 258.676 688.61 270.187C690.734 282.288 685.602 294.744 672.949 308.144C668.79 312.572 656.137 324.614 650.74 329.396C635.079 343.15 628.089 353.362 628 362.453C628 374.791 637.202 387.364 660.207 406.491C676.488 419.95 690.026 432.583 703.298 446.75C713.827 457.966 721.348 469.595 723.825 478.273C725.949 485.947 724.71 497.045 720.906 503.833C710.642 522.251 688.168 538.367 632.424 567.41C609.508 579.335 589.423 590.256 574.204 599.051C555.269 610.09 527.574 628.685 517.045 637.54C487.846 662.097 463.602 692.498 447.233 725.083C441.217 736.949 435.377 751.234 434.757 755.367L434.138 759.145H535.98L536.953 756.311C543.235 739.074 555.888 713.69 564.736 700.703C568.541 694.977 581.371 677.74 585.352 672.959C594.731 661.507 611.189 643.974 624.196 631.637C641.626 614.931 679.231 587.835 714.889 566.348C746.565 547.222 762.934 535.533 774.614 523.904C793.637 504.955 797.265 489.548 787.709 469.359C785.497 464.755 773.994 448.757 760.722 431.815C742.76 408.97 729.046 386.538 726.922 376.621C725.684 371.131 726.303 362.276 728.161 357.435C730.285 351.946 737.452 341.969 747.715 330.281C767.978 307.141 773.817 296.515 774.791 280.695C775.675 266.173 771.605 253.245 760.457 235.063C748.689 215.937 746.565 211.274 744.088 198.641C743.026 193.21 742.937 180.459 743.999 177.744C744.442 176.563 745.326 173.375 745.857 170.601C746.388 167.826 748.777 159.739 751.166 152.596C759.129 128.511 759.218 114.58 751.52 101.593C743.026 87.2485 723.118 77.0951 697.104 73.7893C674.807 70.9558 647.378 72.3135 625.965 77.3312C615.525 79.8105 590.927 88.252 575.531 94.6865C568.806 97.4609 563.232 99.7041 563.144 99.6451C563.055 99.527 570.488 77.8035 579.601 51.3574C588.715 24.9113 596.501 2.53835 596.767 1.59385L597.386 0H499.88L499.437 1.29869Z" fill="white"/>
<path d="M889.727 1.00354C889.196 2.2432 873.27 48.4058 873.27 48.76C873.27 48.878 896.363 48.9961 924.589 48.9961H975.908L976.35 47.6384C978.032 43.0339 992.719 0.354193 992.719 0.177098C992.719 0.0590354 969.626 3.89386e-06 941.489 3.89386e-06C893.444 3.89386e-06 890.17 0.0590354 889.727 1.00354Z" fill="white"/>
<path d="M239.833 41.4399C235.852 53.2462 231.339 66.2331 229.835 70.3653L227.18 77.9213H187.541L186.921 79.5152C186.656 80.4597 183.294 89.9047 179.578 100.648L172.765 120.129L191.257 120.306C201.344 120.365 209.661 120.542 209.661 120.601C209.661 120.719 207.715 126.386 205.237 133.175C199.132 150.176 197.805 156.905 198.424 167.944C199.309 182.82 202.76 190.376 218.863 211.923C235.675 234.473 238.683 240.317 239.479 251.828C240.541 267.826 233.905 278.805 206.653 305.665C174.357 337.542 170.022 341.91 165.686 347.754C158.431 357.435 157.015 360.977 157.015 368.946C157.015 375.499 157.103 375.853 160.2 380.162C163.828 385.239 170.11 389.903 178.25 393.563C189.487 398.58 196.831 400.528 230.897 407.376C262.307 413.751 273.81 416.349 284.693 419.773C311.238 428.037 323.802 439.43 323.802 455.132C323.802 464.518 320.528 472.783 311.945 484.766C298.054 504.306 281.154 518.001 251.247 533.998C232.578 544.034 193.469 562.865 161.881 577.032C126.223 593.089 113.217 599.051 100.387 605.367C64.1096 623.254 40.2197 641.2 24.3816 662.569C17.2146 672.132 5.62357 695.154 2.17281 706.547C-2.16277 720.774 0.0492582 733.879 8.27801 742.616C18.5418 753.477 35.6187 759.499 63.6672 762.155C74.4619 763.218 118.083 763.218 130.913 762.214C141.354 761.388 163.297 758.849 168.075 757.964L171.172 757.373L175.065 746.039C178.25 736.653 184.267 721.364 187.01 715.579C187.629 714.399 187.364 714.281 184.09 714.281C182.144 714.281 177.1 715.048 172.765 715.992C148.609 721.423 124.011 721.6 112.597 716.465C98.7943 710.266 101.449 695.863 121.622 667.882C138.168 644.978 164.359 625.792 208.334 604.482C214.705 601.412 232.755 593.266 248.593 586.3C286.286 569.712 293.541 566.466 308.141 559.382C367.158 530.811 399.365 504.719 406.62 479.453C408.213 474.022 408.213 462.747 406.62 456.844C401.931 439.312 387.951 422.488 365.742 407.73C347.78 395.747 332.385 388.545 305.132 379.513C277.349 370.245 270.89 367.116 264.873 360.328C262.573 357.73 262.307 356.904 262.307 352.122C262.307 345.629 263.635 342.677 270.979 332.347C273.191 329.336 288.144 311.922 297.7 301.355C319.643 276.916 326.368 265.228 326.456 251.415C326.456 240.73 322.121 229.514 312.299 215.169C299.47 196.457 295.399 179.987 299.027 161.392C299.823 157.024 303.186 146.339 306.548 137.012L312.653 120.424H356.717C380.961 120.424 400.78 120.306 400.78 120.188C400.78 120.011 403.966 110.743 407.859 99.4678C411.752 88.1928 414.938 78.7478 414.938 78.4526C414.938 78.1575 396.887 77.9213 369.812 77.9213C345.037 77.9213 324.687 77.7443 324.687 77.5081C324.687 77.272 329.111 64.4031 334.42 48.9369C339.817 33.4116 344.153 20.6018 344.153 20.4247C344.153 20.1886 322.386 20.0705 295.665 20.0705H247.266L239.833 41.4399Z" fill="white"/>
<path d="M1239.85 72.6086C1213.3 74.1434 1189.32 80.6959 1151.37 96.6935C1147.3 98.4054 1144.02 99.645 1144.02 99.527C1144.02 99.3499 1145.61 94.8635 1147.56 89.4326C1149.51 84.0017 1151.1 79.2202 1151.1 78.7479C1151.1 78.0395 1144.02 77.9215 1103.14 77.9215C1076.69 77.9215 1054.3 78.0986 1053.33 78.2757C1051.74 78.5118 1049.97 82.9391 1038.91 114.108C1026.43 149.35 1025.55 152.124 1023.25 162.927C1021.48 170.955 1022.1 187.484 1024.66 200.117C1026.17 207.791 1026.7 221.899 1025.55 226.622C1022.1 241.202 1008.56 256.137 973.696 283.941C941.754 309.325 931.402 318.239 922.2 327.92C903.884 347.164 898.929 358.321 900.08 377.801C900.787 388.722 903.176 398.757 907.866 409.737C912.113 419.95 916.006 426.797 926.536 442.736C941.577 465.404 944.674 472.311 945.559 484.412C946.975 504.719 937.33 519.595 901.938 551.059C875.393 574.789 864.51 589.075 856.547 610.798C854.335 616.938 853.008 621.542 849.291 636.949C847.256 645.037 844.779 653.95 843.186 658.791C842.301 661.565 839.824 668.826 837.877 675.025C833.984 686.89 827.26 706.134 815.669 738.306C811.864 749.05 808.679 758.141 808.679 758.495C808.679 758.967 823.809 759.144 858.228 759.144C885.48 759.144 907.778 759.026 907.778 758.849C907.778 758.672 908.751 755.248 909.99 751.293C917.156 727.504 922.2 703.95 925.208 680.042C926.447 670.302 926.712 662.333 926.536 639.606C926.359 608.437 926.889 602.239 930.871 591.436C936.268 576.501 942.993 567.528 964.405 546.631C988.826 522.723 997.32 511.153 1001.13 496.809C1004.75 482.7 1001.66 470.481 988.384 446.691C979.536 430.812 976.704 425.085 973.784 417.293C969.537 405.605 967.856 397.518 967.502 386.951C966.352 352.654 980.509 336.42 1048.46 293.74C1092.44 266.173 1106.33 256.492 1116.59 246.456C1124.03 239.077 1127.3 234.06 1129.42 226.681C1130.57 222.43 1130.57 213.222 1129.42 208.381C1129.07 207.259 1128.1 203.127 1127.21 199.231C1126.33 195.335 1125.26 191.203 1125 190.081C1124.64 188.96 1124.2 182.407 1123.94 175.619C1123.49 162.336 1124.73 154.308 1129.07 141.793L1130.93 136.304L1140.31 133.293C1161.45 126.563 1174.46 123.966 1189.15 123.553C1201.27 123.199 1210.74 124.025 1217.46 126.091C1223.12 127.803 1224.89 128.807 1227.73 131.699C1232.59 136.894 1233.39 142.974 1232.24 166.469C1231.97 173.434 1232.06 180.223 1232.5 182.407C1234.01 189.019 1234.1 189.55 1236.93 200.176C1241 215.937 1241 223.552 1236.75 231.994C1231.97 241.734 1221.71 251.002 1201.36 264.166C1188.97 272.253 1183.31 275.5 1145.35 296.633C1101.55 321.013 1085.09 331.344 1072.97 342.205C1053.51 359.561 1044.75 381.874 1047.49 407.376C1048.99 421.012 1050.67 426.561 1059.08 445.687C1067.49 464.637 1069.7 472.488 1069.7 483.822C1069.7 501.944 1061.73 515.699 1034.84 543.975C1012.98 566.938 1006.43 578.744 1005.64 596.808C1005.2 605.308 1006.08 611.094 1009.97 624.73C1016.96 648.815 1018.38 655.072 1020.59 671.66C1022.1 683.289 1021.74 711.447 1019.88 724.611C1018.56 733.879 1015.81 747.456 1013.95 753.773C1012.27 759.794 1006.26 759.144 1062.89 759.144H1112.79L1114.2 753.123C1123.23 715.225 1121.55 682.994 1108.98 649.641C1106.42 642.971 1106.42 642.971 1098.54 626.324C1095.36 619.653 1092.17 612.51 1091.38 610.385C1085.89 596.1 1086.16 579.748 1091.91 568.296C1095.71 560.799 1098.28 557.257 1111.73 541.318C1134.29 514.636 1140.66 501.118 1140.66 480.221C1140.66 469.241 1140.13 465.581 1135.62 447.163C1131.37 429.926 1130.84 425.912 1131.19 416.467C1131.81 401.06 1136.32 385.652 1144.55 370.836C1158.09 346.456 1174.81 333.882 1241.35 298.109C1277.98 278.392 1296.12 267.058 1310.99 254.662C1337.27 232.584 1342.66 217.118 1334.79 186.244C1330.81 170.542 1330.89 162.277 1335.41 143.151C1336.82 136.894 1337.35 132.23 1337.35 123.966C1337.35 110.92 1336.29 107.201 1329.74 98.1102C1326.03 93.0335 1324.26 91.3216 1318.51 87.4846C1304.08 77.9215 1285.15 73.1989 1258.16 72.4315C1252.59 72.2544 1244.36 72.3135 1239.85 72.6086Z" fill="white"/>
<path d="M1542.1 73.258C1505.82 74.97 1473.26 85.4185 1444.86 104.486C1420.26 121.014 1402.92 141.498 1397.52 160.329C1395.49 167.295 1395.4 168.063 1393.89 192.738C1392.3 219.361 1384.69 233.765 1360.89 255.016C1342.04 271.84 1319.04 287.719 1282.5 309.03C1243.92 331.58 1232.77 339.254 1220.74 351.532C1205.61 366.999 1192.42 389.549 1185.7 411.508C1181.89 423.964 1181.36 437.6 1183.84 460.445C1184.99 470.953 1184.72 488.013 1183.31 496.455C1180.57 512.157 1175.26 523.668 1161.1 544.506C1148.36 563.337 1145.26 570.303 1144.46 582.286C1143.76 593.62 1147.3 604.364 1157.83 623.018C1165.79 637.186 1171.54 648.579 1173.66 654.659C1176.58 662.982 1191.98 693.088 1198.26 702.77C1207.29 716.76 1216.84 726.795 1228.08 734.351C1245.95 746.335 1268.52 753.241 1297.36 755.603C1309.92 756.665 1336.82 756.075 1346.91 754.481C1361.33 752.238 1377.97 747.161 1393.54 740.314C1397.7 738.484 1401.59 736.772 1402.21 736.477C1404.86 735.414 1400.44 751.648 1396.02 759.322C1390.44 768.944 1379.91 777.09 1367.08 781.458C1353.99 786.004 1339.74 788.247 1316.65 789.31C1290.19 790.549 1263.12 787.657 1228.52 779.865C1218.79 777.621 1213.92 776.854 1210.21 776.854H1205.16L1204.28 779.924C1196.85 804.068 1190.39 826.499 1190.83 826.736C1192.33 827.326 1219.59 830.632 1233.83 831.989C1259.58 834.351 1272.94 834.941 1301.08 835C1328.33 835 1341.07 834.41 1359.92 832.285C1411.68 826.499 1449.99 810.738 1475.47 784.823C1491.22 768.826 1499.01 751.529 1501.4 727.563C1502.19 720.42 1501.93 692.38 1501.13 687.716C1500.87 686.595 1500.51 683.525 1500.16 680.928C1499.89 678.331 1499.45 675.556 1499.27 674.73C1499.1 673.903 1498.65 672.191 1498.39 670.893C1495.73 658.437 1491.58 645.391 1486.36 633.585C1473.53 604.128 1472.2 598.756 1470.96 568.768C1470.69 562.57 1470.34 556.903 1470.08 556.076C1469.9 555.25 1469.54 553.243 1469.19 551.649C1468.04 545.215 1464.15 538.485 1457.69 531.873C1452.82 526.856 1449.72 524.435 1435.39 514.341C1413.27 498.757 1404.51 490.138 1398.49 478.037C1391.15 463.338 1394.51 447.931 1408.14 433.763C1423.8 417.648 1448.49 403.598 1501.04 381.048C1538.56 364.932 1549.89 358.557 1556.17 349.879C1559.35 345.393 1560.5 340.966 1561.21 330.517C1561.65 321.78 1562.1 319.832 1563.95 315.936C1568.02 307.672 1577.23 300.942 1596.87 291.97C1623.24 279.986 1637.39 271.072 1652.44 257.082C1672.08 238.841 1693.22 207.141 1707.29 174.792C1710.66 167.118 1717.73 148.464 1724.46 129.574C1727.73 120.365 1730.56 112.337 1733.4 104.486C1734.9 100.117 1737.55 92.9745 1739.15 88.6062C1742.6 79.5154 1742.69 79.3383 1740.65 78.866C1739.41 78.5118 1685.53 79.6334 1654.91 80.637L1645.09 80.9912L1642.17 85.6546C1640.58 88.252 1638.99 90.4952 1638.54 90.6133C1638.19 90.7904 1634.74 89.4327 1630.93 87.6027C1618.99 81.8176 1602.8 77.2722 1585.99 75.029C1577.58 73.9074 1558.47 72.5497 1553.69 72.7268C1552.45 72.7268 1547.23 72.9629 1542.1 73.258ZM1574.04 131.699C1582.45 133.234 1590.5 136.008 1600.05 140.672C1608.73 144.922 1617.4 150.294 1617.4 151.357C1617.4 151.711 1615.01 157.732 1612 164.698C1608.99 171.663 1606.25 178.157 1605.89 179.16C1598.55 197.578 1587.49 218.298 1578.55 229.987C1566.52 245.925 1559.09 250.766 1524.14 265.583C1502.37 274.791 1487.51 288.251 1471.4 313.457C1452.03 343.681 1443 352.241 1396.19 384.885C1343.19 421.78 1329.57 437.069 1326.74 463.102C1325.23 476.502 1329.48 491.083 1342.75 518.06C1352.31 537.599 1353.81 542.676 1355.49 560.799C1357 576.088 1359.3 587.127 1363.9 600.055C1366.55 607.493 1368.68 611.802 1377.17 626.914C1391.59 652.534 1397.43 668.649 1401.06 693.502L1401.5 696.571L1396.46 698.755C1379.38 706.016 1362.57 708.85 1343.02 707.728C1317.98 706.311 1303.64 699.759 1290.28 683.584C1285.68 678.094 1282.94 673.018 1280.19 665.344C1275.24 651.294 1270.9 642.794 1257.37 620.893C1248.96 607.257 1244.36 597.28 1242.68 589.429C1242.41 587.776 1241.97 585.651 1241.71 584.707C1240.91 580.692 1240.73 571.365 1241.35 566.407C1241.79 563.455 1243.56 556.312 1245.33 550.468C1251.35 530.634 1252.06 524.849 1252.5 493.503C1253.3 434.885 1255.42 428.096 1283.65 395.216C1314.17 359.679 1328.51 345.629 1358.15 322.017C1390.53 296.279 1420.7 269.774 1438.75 251.474C1459.37 230.518 1471.93 210.565 1487.42 174.143C1493.7 159.267 1496.71 155.135 1507.59 146.634C1525.73 132.526 1549.62 127.154 1574.04 131.699Z" fill="white"/>
<path d="M859.29 96.6345C855.662 106.965 848.938 126.15 844.337 139.314C833.011 171.604 832.569 173.612 832.569 188.901C832.569 200.412 833.984 209.385 837.966 223.434C843.187 241.734 843.098 251.474 837.347 272.017C832.834 288.074 824.782 303.54 810.36 323.906C792.31 349.289 789.744 354.071 788.24 364.578C787.355 370.54 787.355 372.725 788.682 379.277C792.752 400.41 801.158 416.821 822.216 445.038C839.559 468.178 843.187 475.676 843.187 488.84C843.187 502.535 836.108 514.872 819.208 530.634C810.979 538.308 803.458 544.211 785.32 557.198C751.078 581.755 736.567 593.679 717.101 613.337C706.041 624.494 702.059 629.039 685.425 649.641C679.85 656.548 659.5 683.82 655.695 689.487C645.343 704.836 637.025 718.767 630.743 731.695C624.904 743.501 619.152 757.374 619.683 758.318C620.126 759.026 627.381 759.145 669.586 759.145H719.136L720.109 756.37C721.436 752.71 726.922 739.782 729.046 735.237C729.931 733.289 731.7 729.275 733.027 726.382C736.124 719.416 747.185 697.398 753.024 686.536C755.502 681.813 758.687 675.851 760.014 673.254C761.43 670.656 764.969 663.986 767.978 658.496C770.986 652.947 773.994 647.398 774.614 646.099C784.347 626.442 793.283 611.389 802.131 599.523C813.722 583.998 823.101 574.73 847.168 554.896C877.163 530.102 888.312 518.237 894.063 505.014C902.027 486.478 898.487 473.019 878.402 445.688C859.202 419.596 852.212 406.195 847.876 387.837C845.753 378.687 845.664 360.387 847.788 354.484C852.477 340.848 865.041 323.965 892.824 293.682C920.696 263.398 929.898 250.766 933.791 237.306C935.295 232.407 935.118 219.774 933.526 210.447C931.137 196.516 930.694 182.998 932.376 172.962C934.411 160.507 935.03 158.618 955.558 100.353C959.451 89.1375 962.902 79.5154 963.167 78.9251C963.609 77.9806 960.867 77.9215 914.679 77.9215H865.749L859.29 96.6345Z" fill="white"/>
<path d="M1539.89 667.882C1539.62 668.295 1539.89 670.893 1540.42 673.608C1542.1 682.699 1542.63 691.435 1542.54 708.968C1542.45 727.445 1540.68 743.442 1537.23 756.075L1536.7 757.964L1571.92 757.846L1607.22 757.669L1607.84 754.717C1611.29 738.72 1612.97 719.475 1612.53 699.523C1612.35 689.96 1612 681.459 1611.73 680.633C1611.56 679.806 1611.11 676.619 1610.76 673.549C1610.41 670.361 1609.7 667.764 1609.17 667.528C1608.55 667.292 1592.89 667.055 1574.22 667.055C1546.61 667.055 1540.24 667.174 1539.89 667.882Z" fill="white"/>
</svg>
