<svg width="49" height="43" viewBox="0 0 49 43" fill="none" xmlns="http://www.w3.org/2000/svg">
<path d="M14.8013 33.6551C12.0705 33.5234 9.74982 32.4184 7.84623 30.3252C6.75889 29.1296 5.98489 27.7166 5.50007 26.0817C5.89754 26.1352 6.25861 26.1984 6.62193 26.2285C6.98356 26.2586 7.34802 26.2747 7.71003 26.2619C8.07712 26.2489 8.44385 26.2006 8.80906 26.1531C9.16918 26.1063 9.52552 26.032 9.87923 25.9029C7.56817 25.3039 5.64797 24.036 4.16712 22.0279C2.68363 20.0164 1.97603 17.7156 2.00697 15.1369C3.3918 15.9204 4.84454 16.3747 6.40462 16.4452C3.80172 14.3618 2.30144 11.6171 2.08564 8.10371C1.9517 5.924 2.41821 3.89378 3.41802 1.978C3.46782 2.02423 3.5031 2.04969 3.53008 2.08289C3.97339 2.62685 4.40349 3.18404 4.86189 3.71273C5.25578 4.16708 5.67947 4.5917 6.09392 5.02487C6.74398 5.70426 7.43442 6.33457 8.15654 6.9217C8.72794 7.38644 9.31425 7.83081 9.90375 8.26847C10.6546 8.82587 11.4453 9.3126 12.2497 9.77449C13.7064 10.6107 15.2188 11.3039 16.7875 11.8538C18.1742 12.3399 19.5858 12.7179 21.028 12.9533C21.6145 13.049 22.2042 13.1236 22.7937 13.1977C23.1029 13.2366 23.4147 13.2486 23.7245 13.2822C23.8473 13.2957 23.9678 13.347 24.1033 13.269C24.0948 13.1975 24.0871 13.1248 24.0776 13.0525C24.0142 12.5647 23.939 12.0786 23.8912 11.589C23.8605 11.2744 23.849 10.9541 23.866 10.6386C23.9041 9.93211 23.955 9.22645 24.0993 8.5324C24.3521 7.3174 24.7749 6.17775 25.3853 5.12099C25.7384 4.50983 26.1444 3.94326 26.602 3.41682C27.3474 2.55903 28.198 1.85561 29.1551 1.29556C30.1195 0.731439 31.1387 0.34694 32.2206 0.155098C32.5596 0.09502 32.8978 0.0347384 33.2436 0.0322946C33.6507 0.0294434 34.0589 -0.0157678 34.4645 0.00581955C35.0008 0.0343311 35.5345 0.109683 36.0615 0.23269C36.9072 0.430031 37.7165 0.737344 38.4884 1.15646C39.2949 1.59432 40.0298 2.14785 40.7016 2.79791C40.8787 2.96939 41.0432 3.15635 41.2085 3.34147C41.2592 3.39829 41.3068 3.41173 41.3752 3.39482C41.5769 3.34513 41.7808 3.30501 41.9821 3.25369C43.2817 2.92235 44.5412 2.46107 45.7514 1.85378C46.3371 1.5599 46.9002 1.21369 47.4735 0.891103C47.5216 0.864017 47.5697 0.837135 47.6239 0.806587C47.6369 1.12225 47.2049 2.20345 46.6814 3.14616C46.2764 3.87565 45.7895 4.53977 45.2351 5.1436C44.6778 5.75049 44.0596 6.27816 43.3945 6.74819C44.3635 6.64025 45.3096 6.4197 46.2452 6.14456C47.177 5.87064 48.0806 5.50753 48.9681 5.09554C48.9787 5.10918 48.9892 5.12283 49 5.13647C48.9198 5.26803 48.8423 5.40163 48.7587 5.53054C48.2756 6.27531 47.7514 6.98545 47.1853 7.65791C46.768 8.15381 46.3328 8.63138 45.8727 9.08349C45.315 9.63173 44.7397 10.1547 44.1292 10.6323C44.0278 10.7117 44.0047 10.8078 44.0066 10.929C44.0115 11.2469 44.0129 11.5648 44.0172 11.8825C44.0221 12.2354 44.0357 12.5884 44.0321 12.9411C44.0296 13.1694 44.0017 13.3975 43.9879 13.6258C43.9802 13.7535 43.9825 13.882 43.9721 14.0095C43.9242 14.6064 43.8904 15.2053 43.8193 15.799C43.7393 16.4684 43.6367 17.1354 43.5229 17.7993C43.2575 19.3485 42.8697 20.8634 42.3886 22.3503C42.0761 23.3169 41.7191 24.2643 41.3237 25.1956C40.7759 26.4857 40.1511 27.7307 39.4528 28.9318C38.7308 30.1735 37.9312 31.3555 37.0504 32.4717C36.7292 32.8786 36.3945 33.2737 36.0565 33.6645C35.7435 34.0264 35.4317 34.3916 35.0948 34.7264C34.5275 35.2903 33.9535 35.8479 33.3587 36.377C32.8407 36.8376 32.2993 37.2694 31.7512 37.6883C30.9925 38.2681 30.2036 38.7986 29.3881 39.2825C28.3636 39.8906 27.3091 40.4291 26.22 40.8869C25.3715 41.2435 24.5102 41.5604 23.6313 41.8225C22.8448 42.0571 22.0541 42.2701 21.2514 42.4253C20.636 42.5442 20.0177 42.6485 19.3982 42.7387C18.9037 42.8106 18.4057 42.8562 17.9084 42.9039C17.6543 42.9283 17.3983 42.9298 17.1433 42.945C16.9379 42.9572 16.7328 42.9748 16.5276 42.9898C16.49 42.9925 16.4527 42.9972 16.4151 42.9974C15.7804 42.9984 15.1454 43.0029 14.5106 42.9972C14.3055 42.9953 14.1007 42.9642 13.8954 42.9497C13.7772 42.9414 13.6583 42.9416 13.5398 42.9342C12.7672 42.8876 12 42.79 11.2339 42.6721C10.2707 42.5241 9.31971 42.3135 8.37688 42.0581C7.29784 41.7659 6.24163 41.3956 5.20202 40.9686C4.21466 40.5631 3.24994 40.1016 2.31804 39.5668C1.59252 39.1505 0.889074 38.6895 0.176758 38.2465C0.125825 38.2148 0.0828142 38.1683 0 38.0981C3.67118 38.5424 7.16107 37.9942 10.5084 36.433C12.0524 35.7129 13.4817 34.7805 14.8013 33.6551Z" fill="white"/>
</svg>
